<svg xmlns="http://www.w3.org/2000/svg" xmlns:xlink="http://www.w3.org/1999/xlink" width="346" zoomAndPan="magnify" viewBox="0 0 259.5 36.000001" height="48" preserveAspectRatio="xMidYMid meet" version="1.0"><defs><g/><clipPath id="11f7b8682a"><path d="M 180 18 L 202 18 L 202 35.027344 L 180 35.027344 Z M 180 18 " clip-rule="nonzero"/></clipPath></defs><g fill="#000000" fill-opacity="1"><g transform="translate(8.120773, 25.516227)"><g><path d="M 25.296875 -20.15625 C 22.265625 -23.140625 12.21875 -21.15625 6.109375 -17.4375 C 2.140625 -15.03125 0.40625 -12.28125 1.203125 -9.6875 C 1.28125 -9.390625 1.59375 -9.25 1.875 -9.328125 C 2.171875 -9.421875 2.3125 -9.71875 2.21875 -10 C 1.375 -12.796875 4.640625 -15.296875 6.65625 -16.515625 C 12.90625 -20.34375 22.09375 -21.8125 24.546875 -19.375 C 25.53125 -18.4375 25.359375 -16.875 24.125 -14.75 C 21.953125 -11.046875 16.234375 -8.375 12.21875 -7.3125 C 12.03125 -7.25 11.75 -7.359375 11.78125 -7.828125 C 11.796875 -8 11.84375 -8.1875 11.890625 -8.375 C 12.5625 -11.765625 13.390625 -15.984375 14.640625 -16.296875 C 14.921875 -16.359375 15.109375 -16.640625 15.03125 -16.9375 C 14.96875 -17.21875 14.6875 -17.40625 14.390625 -17.34375 C 12.484375 -16.875 11.71875 -13.03125 10.828125 -8.578125 C 10.765625 -8.234375 10.6875 -7.859375 10.625 -7.5 C 10.578125 -7.3125 10.578125 -6.84375 9.6875 -6.828125 C 9.15625 -6.765625 8.59375 -6.796875 8.0625 -6.921875 C 8.0625 -6.96875 8.09375 -7.1875 8.59375 -7.671875 C 8.796875 -7.890625 8.796875 -8.234375 8.59375 -8.4375 C 8.375 -8.640625 8.046875 -8.640625 7.828125 -8.4375 C 7.578125 -8.171875 6.765625 -7.375 7.046875 -6.578125 C 7.234375 -6.078125 7.71875 -5.796875 8.53125 -5.734375 C 8.671875 -5.71875 8.828125 -5.71875 8.984375 -5.71875 L 9.53125 -5.71875 C 9.703125 -5.71875 9.859375 -5.640625 9.984375 -5.5 C 10.09375 -5.375 10.125 -5.1875 10.09375 -5.03125 C 9.53125 -2.78125 8.90625 -0.875 8.0625 -0.65625 C 7.890625 -0.609375 7.734375 -0.46875 7.671875 -0.265625 C 7.640625 -0.078125 7.671875 0.125 7.828125 0.25 C 7.96875 0.390625 8.171875 0.421875 8.359375 0.390625 C 9.796875 0 10.59375 -2.34375 11.265625 -5.40625 C 11.359375 -5.78125 11.640625 -6.0625 11.984375 -6.140625 C 16.34375 -7.1875 22.625 -10.0625 25.03125 -14.1875 C 26.953125 -17.453125 26.25 -19.234375 25.296875 -20.15625 Z M 25.296875 -20.15625 "/></g></g></g><g fill="#000000" fill-opacity="1"><g transform="translate(25.90749, 25.516227)"><g><path d="M 17.609375 -5.375 C 17.5 -5.46875 17.375 -5.53125 17.234375 -5.53125 C 17.09375 -5.53125 16.953125 -5.46875 16.84375 -5.375 C 13.3125 -1.921875 7.046875 -1.1875 5.703125 -1.984375 C 4.78125 -2.515625 4.875 -3.140625 5.53125 -4.40625 C 5.84375 -5.03125 6.1875 -5.734375 5.59375 -6.171875 C 5.046875 -6.578125 4.515625 -6.3125 4.046875 -6.0625 C 3.375 -5.671875 2.609375 -5.46875 1.8125 -5.46875 C 1.640625 -5.46875 1.46875 -5.796875 1.515625 -5.921875 C 2.65625 -8.4375 2.140625 -8.90625 1.953125 -9.09375 C 1.65625 -9.390625 1.1875 -9.375 0.609375 -9.03125 C -0.328125 -8.359375 -0.734375 -7.140625 -0.40625 -6.03125 C -0.328125 -5.71875 -0.1875 -5.4375 0.015625 -5.1875 C 0 -4.96875 0.109375 -4.765625 0.3125 -4.65625 C 0.421875 -4.59375 0.578125 -4.59375 0.71875 -4.640625 C 1.0625 -4.46875 1.453125 -4.390625 1.84375 -4.390625 C 2.671875 -4.375 3.484375 -4.546875 4.234375 -4.96875 C 4.515625 -5.109375 4.609375 -4.984375 4.578125 -4.90625 C 4.078125 -3.9375 3.203125 -2.1875 5.171875 -1.046875 C 5.859375 -0.71875 6.640625 -0.578125 7.40625 -0.640625 C 10.265625 -0.640625 14.765625 -1.859375 17.578125 -4.609375 C 17.6875 -4.703125 17.75 -4.84375 17.75 -4.984375 C 17.765625 -5.125 17.703125 -5.265625 17.609375 -5.375 Z M 0.59375 -6.5 C 0.46875 -7.09375 0.671875 -7.703125 1.140625 -8.09375 C 1 -7.53125 0.8125 -7 0.59375 -6.46875 Z M 0.59375 -6.5 "/></g></g></g><g fill="#000000" fill-opacity="1"><g transform="translate(42.652736, 25.516227)"><g><path d="M 17.078125 -4.9375 C 16.875 -5.171875 16.515625 -5.1875 16.296875 -4.984375 C 16.234375 -4.921875 10.171875 0.53125 6.40625 -1.9375 C 4.921875 -2.921875 4.546875 -5.296875 4.546875 -5.3125 C 4.53125 -5.5625 4.34375 -5.734375 4.109375 -5.78125 C 3.875 -5.796875 3.640625 -5.671875 3.53125 -5.46875 C 2.578125 -3.34375 0.875 -0.65625 0.40625 -0.953125 C 0.375 -0.953125 0.28125 -1.046875 0.21875 -1.1875 C -0.015625 -1.859375 0.0625 -2.59375 0.40625 -3.234375 C 1.1875 -4.8125 2.609375 -5.96875 4.328125 -6.390625 C 4.515625 -6.4375 4.65625 -6.578125 4.71875 -6.765625 C 4.78125 -6.9375 4.71875 -7.140625 4.59375 -7.296875 C 4.453125 -7.40625 4.265625 -7.46875 4.078125 -7.4375 C 2.046875 -6.9375 0.34375 -5.5625 -0.578125 -3.671875 C -1.0625 -2.75 -1.125 -1.65625 -0.734375 -0.6875 C -0.546875 -0.21875 -0.109375 0.109375 0.40625 0.109375 L 0.421875 0.109375 C 1.421875 0.078125 2.671875 -1.15625 3.53125 -2.515625 C 3.640625 -2.671875 3.8125 -2.75 4 -2.734375 C 4.1875 -2.734375 4.34375 -2.640625 4.4375 -2.46875 C 4.78125 -1.90625 5.25 -1.40625 5.8125 -1.0625 C 10.265625 1.90625 16.75 -3.9375 17.03125 -4.1875 C 17.140625 -4.28125 17.1875 -4.4375 17.1875 -4.546875 C 17.21875 -4.703125 17.15625 -4.84375 17.078125 -4.9375 Z M 17.078125 -4.9375 "/></g></g></g><g fill="#000000" fill-opacity="1"><g transform="translate(59.152928, 25.516227)"><g><path d="M 16.875 -4.84375 C 16.671875 -5.046875 16.3125 -5.0625 16.09375 -4.859375 C 12.71875 -1.59375 5.96875 -0.9375 3.734375 -1.859375 C 3.40625 -2 3.203125 -2.171875 3.1875 -2.28125 C 3.1875 -2.578125 3.75 -3.328125 5.96875 -4.375 C 6.4375 -4.5 6.9375 -4.65625 6.96875 -5.125 C 6.9375 -5.375 6.796875 -5.609375 6.5625 -5.703125 C 5.875 -5.921875 3.46875 -5.25 1.015625 -2.78125 C 0.9375 -2.703125 0.796875 -2.671875 0.6875 -2.71875 C 0.578125 -2.78125 0.515625 -2.90625 0.53125 -3.015625 C 0.59375 -3.484375 0.640625 -3.9375 0.6875 -4.390625 C 0.6875 -4.40625 0.71875 -4.40625 0.71875 -4.4375 C 2.25 -6.875 7.109375 -15.078125 5.71875 -16.984375 C 5.328125 -17.453125 4.703125 -17.640625 4.125 -17.421875 C 1.0625 -16.671875 -0.125 -7.96875 -0.796875 -0.453125 C -0.8125 -0.203125 -0.671875 0.015625 -0.453125 0.109375 C -0.21875 0.1875 0.015625 0.109375 0.15625 -0.109375 C 0.6875 -0.859375 1.28125 -1.578125 1.953125 -2.203125 C 2.046875 -2.3125 2.125 -2.28125 2.125 -2.265625 C 2.125 -1.84375 2.34375 -1.265625 3.328125 -0.859375 C 5.84375 0.15625 13.109375 -0.46875 16.84375 -4.078125 C 16.953125 -4.1875 17.015625 -4.3125 17.015625 -4.453125 C 17.015625 -4.59375 16.953125 -4.734375 16.875 -4.84375 Z M 4.390625 -16.375 C 4.46875 -16.40625 4.578125 -16.421875 4.671875 -16.421875 C 4.765625 -16.421875 4.8125 -16.40625 4.84375 -16.359375 C 5.265625 -15.78125 4.1875 -12.6875 1.75 -8.296875 C 1.6875 -8.1875 1.546875 -8.140625 1.453125 -8.1875 C 1.328125 -8.234375 1.25 -8.359375 1.265625 -8.46875 C 2.28125 -14.4375 3.46875 -16.15625 4.390625 -16.375 Z M 4.390625 -16.375 "/></g></g></g><g fill="#000000" fill-opacity="1"><g transform="translate(75.244706, 25.516227)"><g><path d="M 17.078125 -4.9375 C 16.875 -5.171875 16.515625 -5.1875 16.296875 -4.984375 C 16.234375 -4.921875 10.171875 0.53125 6.40625 -1.9375 C 4.921875 -2.921875 4.546875 -5.296875 4.546875 -5.3125 C 4.53125 -5.5625 4.34375 -5.734375 4.109375 -5.78125 C 3.875 -5.796875 3.640625 -5.671875 3.53125 -5.46875 C 2.578125 -3.34375 0.875 -0.65625 0.40625 -0.953125 C 0.375 -0.953125 0.28125 -1.046875 0.21875 -1.1875 C -0.015625 -1.859375 0.0625 -2.59375 0.40625 -3.234375 C 1.1875 -4.8125 2.609375 -5.96875 4.328125 -6.390625 C 4.515625 -6.4375 4.65625 -6.578125 4.71875 -6.765625 C 4.78125 -6.9375 4.71875 -7.140625 4.59375 -7.296875 C 4.453125 -7.40625 4.265625 -7.46875 4.078125 -7.4375 C 2.046875 -6.9375 0.34375 -5.5625 -0.578125 -3.671875 C -1.0625 -2.75 -1.125 -1.65625 -0.734375 -0.6875 C -0.546875 -0.21875 -0.109375 0.109375 0.40625 0.109375 L 0.421875 0.109375 C 1.421875 0.078125 2.671875 -1.15625 3.53125 -2.515625 C 3.640625 -2.671875 3.8125 -2.75 4 -2.734375 C 4.1875 -2.734375 4.34375 -2.640625 4.4375 -2.46875 C 4.78125 -1.90625 5.25 -1.40625 5.8125 -1.0625 C 10.265625 1.90625 16.75 -3.9375 17.03125 -4.1875 C 17.140625 -4.28125 17.1875 -4.4375 17.1875 -4.546875 C 17.21875 -4.703125 17.15625 -4.84375 17.078125 -4.9375 Z M 17.078125 -4.9375 "/></g></g></g><g fill="#000000" fill-opacity="1"><g transform="translate(91.744898, 25.516227)"><g><path d="M 14.015625 -5.65625 C 13.90625 -5.765625 13.78125 -5.796875 13.640625 -5.796875 C 13.5 -5.796875 13.359375 -5.765625 13.25 -5.65625 C 11.296875 -3.796875 8.890625 -2.484375 6.25 -1.859375 C 6.140625 -1.8125 6.03125 -1.859375 5.96875 -1.9375 C 5.90625 -2.046875 5.875 -2.140625 5.9375 -2.25 C 6.3125 -2.96875 6.234375 -3.8125 5.765625 -4.46875 C 5.46875 -4.859375 5.109375 -5.1875 4.671875 -5.4375 C 4.109375 -5.8125 3.46875 -6.265625 3.453125 -6.734375 C 3.46875 -7 3.578125 -7.25 3.75 -7.453125 L 4.859375 -8.5 C 5.0625 -8.703125 5.078125 -9.03125 4.90625 -9.234375 C 4.71875 -9.453125 4.40625 -9.5 4.171875 -9.3125 C 3.734375 -8.984375 3.328125 -8.625 2.984375 -8.1875 L -0.15625 -5.25 C -0.3125 -5.125 -0.375 -4.921875 -0.328125 -4.734375 C -0.28125 -4.53125 -0.140625 -4.390625 0.046875 -4.328125 C 0.21875 -4.28125 0.421875 -4.328125 0.578125 -4.46875 L 2.125 -5.921875 C 2.203125 -6 2.3125 -6.03125 2.40625 -6.03125 C 2.515625 -6 2.59375 -5.9375 2.640625 -5.859375 C 3.015625 -5.328125 3.515625 -4.875 4.0625 -4.546875 C 4.375 -4.375 4.640625 -4.171875 4.859375 -3.90625 C 5.0625 -3.671875 5.171875 -3.375 5.109375 -3.0625 C 5.046875 -2.75 4.859375 -2.484375 4.59375 -2.34375 C 3.28125 -1.609375 1.640625 -1.953125 0.734375 -3.171875 C 0.59375 -3.390625 0.265625 -3.46875 0.015625 -3.3125 C -0.21875 -3.171875 -0.3125 -2.859375 -0.15625 -2.59375 C 0.515625 -1.421875 1.71875 -0.671875 3.0625 -0.578125 C 3.40625 -0.515625 3.734375 -0.484375 4.078125 -0.484375 C 7.53125 -0.484375 11.78125 -2.65625 14.015625 -4.90625 C 14.21875 -5.109375 14.21875 -5.453125 14.015625 -5.65625 Z M 14.015625 -5.65625 "/></g></g></g><g fill="#000000" fill-opacity="1"><g transform="translate(104.936887, 25.516227)"><g><path d="M 16.109375 -4.875 C 15.90625 -5.109375 15.578125 -5.125 15.359375 -4.921875 C 15.3125 -4.90625 11.109375 -1.21875 8.03125 -1.71875 C 7.109375 -1.859375 6.3125 -2.40625 5.859375 -3.234375 C 5.46875 -3.9375 4.765625 -4.390625 3.96875 -4.46875 C 2.96875 -4.53125 1.859375 -3.9375 0.6875 -2.71875 C 0.640625 -2.65625 0.53125 -2.640625 0.453125 -2.671875 C 0.375 -2.71875 0.328125 -2.796875 0.34375 -2.90625 C 0.40625 -3.28125 0.59375 -4.265625 0.671875 -4.640625 C 0.671875 -4.578125 0.8125 -4.859375 0.8125 -4.875 C 2.546875 -7.25 7.734375 -14.765625 5.71875 -17.171875 C 5.453125 -17.546875 4.96875 -17.703125 4.515625 -17.578125 C 4.109375 -17.453125 2.859375 -17.078125 0.9375 -10.25 C 0.46875 -8.59375 0.046875 -6.828125 -0.3125 -5.140625 L -0.453125 -4.96875 C -0.59375 -4.78125 -0.59375 -4.53125 -0.46875 -4.328125 C -0.78125 -2.8125 -0.984375 -1.421875 -1.078125 -0.375 C -1.109375 -0.125 -0.953125 0.109375 -0.734375 0.1875 C -0.515625 0.265625 -0.25 0.1875 -0.109375 -0.015625 C 1.984375 -3.046875 3.3125 -3.4375 3.90625 -3.40625 C 4.328125 -3.375 4.71875 -3.109375 4.921875 -2.71875 C 5.53125 -1.609375 6.609375 -0.84375 7.890625 -0.65625 C 11.4375 -0.109375 15.875 -3.96875 16.078125 -4.125 C 16.28125 -4.328125 16.296875 -4.65625 16.109375 -4.875 Z M 4.8125 -16.5625 C 4.859375 -16.5625 4.875 -16.5 4.90625 -16.484375 C 5.875 -15.375 1.8125 -7.171875 1.3125 -7.5 C 0.8125 -7.796875 3.96875 -16.5625 4.8125 -16.5625 Z M 4.8125 -16.5625 "/></g></g></g><g fill="#000000" fill-opacity="1"><g transform="translate(120.375187, 25.516227)"><g/></g></g><g fill="#000000" fill-opacity="1"><g transform="translate(127.971809, 25.516227)"><g><path d="M 7.46875 -1.609375 C 10.53125 -4.015625 13.71875 -13.21875 15.84375 -19.28125 C 16.015625 -19.765625 16.359375 -19.765625 16.375 -19.3125 C 16.5625 -16.078125 17.015625 -12.859375 17.453125 -9.734375 C 17.84375 -6.96875 18.25 -4.078125 18.484375 -1.203125 C 18.5 -0.953125 18.6875 -0.75 18.9375 -0.71875 C 19.171875 -0.671875 19.421875 -0.8125 19.5 -1.0625 C 21.625 -6.65625 26.421875 -18.203125 28.53125 -20.75 C 30.109375 -22.671875 31.734375 -23.40625 32.90625 -22.703125 C 33.65625 -22.265625 33.984375 -21.359375 33.734375 -20.53125 C 33.375 -19.640625 32.125 -19.359375 30.390625 -19.765625 C 30.078125 -19.828125 29.796875 -19.671875 29.734375 -19.375 C 29.65625 -19.09375 29.84375 -18.78125 30.125 -18.734375 C 33.53125 -17.90625 34.515625 -19.578125 34.71875 -20.109375 C 35.1875 -21.4375 34.65625 -22.90625 33.453125 -23.625 C 32.8125 -24 30.578125 -24.9375 27.6875 -21.4375 C 25.8125 -19.140625 22.171875 -10.703125 19.84375 -4.90625 C 19.78125 -4.734375 19.640625 -4.65625 19.484375 -4.671875 C 19.3125 -4.703125 19.203125 -4.84375 19.171875 -4.984375 C 19 -6.65625 18.75 -8.296875 18.515625 -9.90625 C 17.890625 -14.359375 17.234375 -19 17.40625 -23.625 C 17.40625 -23.875 17.234375 -24.09375 16.96875 -24.15625 C 16.71875 -24.21875 16.484375 -24.078125 16.375 -23.859375 C 16.015625 -23 15.5 -21.53125 14.828125 -19.640625 C 12.890625 -14.046875 9.625 -4.671875 6.828125 -2.46875 C 5.765625 -1.53125 4.265625 -1.25 2.96875 -1.734375 C 2.46875 -1.921875 2.140625 -2.34375 2.078125 -2.859375 C 2.0625 -3.65625 2.90625 -4.578125 4.375 -5.375 C 4.53125 -5.46875 4.65625 -5.640625 4.65625 -5.84375 C 4.65625 -6.03125 4.546875 -6.203125 4.390625 -6.3125 C 4.234375 -6.40625 4.015625 -6.40625 3.859375 -6.3125 C 1.328125 -4.9375 0.984375 -3.53125 1.015625 -2.8125 C 1.078125 -1.90625 1.65625 -1.109375 2.515625 -0.78125 C 3.046875 -0.53125 3.609375 -0.40625 4.203125 -0.421875 C 5.390625 -0.421875 6.5625 -0.859375 7.46875 -1.609375 Z M 7.46875 -1.609375 "/></g></g></g><g fill="#000000" fill-opacity="1"><g transform="translate(151.680632, 25.516227)"><g><path d="M 17.140625 -5.25 C 17.03125 -5.34375 16.90625 -5.4375 16.765625 -5.4375 C 16.625 -5.453125 16.484375 -5.40625 16.375 -5.328125 C 16.296875 -5.265625 8.4375 0.984375 1.875 -1.71875 C 0.546875 -2.265625 0.484375 -2.984375 0.53125 -3.375 C 0.53125 -3.4375 0.546875 -3.484375 0.609375 -3.53125 C 0.65625 -3.578125 0.734375 -3.578125 0.796875 -3.546875 C 2.125 -3.46875 3.453125 -3.8125 4.59375 -4.53125 C 5.578125 -5.171875 5.734375 -5.859375 5.671875 -6.3125 C 5.640625 -7.046875 5.046875 -7.640625 4.28125 -7.65625 C 2.671875 -7.734375 -0.015625 -5.8125 -0.46875 -3.78125 C -0.65625 -3.015625 -0.640625 -1.59375 1.46875 -0.734375 C 2.75 -0.203125 4.109375 0.046875 5.46875 0.046875 C 11.328125 0.046875 16.765625 -4.265625 17.046875 -4.5 C 17.15625 -4.578125 17.234375 -4.71875 17.234375 -4.84375 C 17.25 -4.984375 17.21875 -5.125 17.140625 -5.25 Z M 1.265625 -4.796875 C 2.0625 -5.90625 3.390625 -6.640625 4.234375 -6.578125 C 4.453125 -6.578125 4.578125 -6.5 4.609375 -6.1875 C 4.640625 -5.984375 4.40625 -5.703125 4 -5.4375 C 3.171875 -4.875 0.65625 -3.984375 1.265625 -4.796875 Z M 1.265625 -4.796875 "/></g></g></g><g fill="#000000" fill-opacity="1"><g transform="translate(168.037875, 25.516227)"><g><path d="M 17.703125 -5.734375 C 17.609375 -5.84375 17.453125 -5.875 17.3125 -5.875 C 17.171875 -5.875 17.046875 -5.8125 16.953125 -5.71875 C 15.109375 -3.78125 10.984375 -0.9375 7.96875 -0.9375 L 7.921875 -0.9375 C 7.09375 -0.90625 6.296875 -1.21875 5.71875 -1.8125 C 4.984375 -2.609375 5.5 -4.78125 5.734375 -5.46875 C 5.84375 -5.734375 5.71875 -6.03125 5.46875 -6.125 C 5.25 -6.25 4.9375 -6.1875 4.796875 -5.96875 C 3.234375 -3.671875 0.984375 -1.453125 0.25 -1.875 C 0 -2.046875 0.375 -3.609375 1.375 -5.390625 C 1.484375 -5.640625 1.40625 -5.9375 1.15625 -6.078125 C 0.921875 -6.234375 0.59375 -6.171875 0.453125 -5.921875 C -0.25 -4.71875 -1.6875 -1.796875 -0.3125 -0.953125 C 0.796875 -0.3125 2.28125 -1.375 3.53125 -2.65625 C 3.65625 -2.796875 3.84375 -2.84375 4 -2.78125 C 4.171875 -2.734375 4.28125 -2.59375 4.328125 -2.40625 C 4.390625 -1.921875 4.59375 -1.46875 4.921875 -1.078125 C 5.703125 -0.265625 6.78125 0.1875 7.90625 0.140625 L 7.96875 0.140625 C 11.328125 0.140625 15.703125 -2.84375 17.71875 -4.96875 C 17.828125 -5.078125 17.875 -5.203125 17.875 -5.34375 C 17.875 -5.5 17.8125 -5.640625 17.703125 -5.734375 Z M 17.703125 -5.734375 "/></g></g></g><g clip-path="url(#11f7b8682a)"><g fill="#000000" fill-opacity="1"><g transform="translate(184.92607, 25.516227)"><g><path d="M 16.828125 -5.328125 C 16.75 -5.4375 16.609375 -5.5 16.453125 -5.5 C 16.3125 -5.5 16.171875 -5.453125 16.078125 -5.34375 C 13.25 -2.671875 8.625 -2.109375 5.296875 -1.90625 C 5.1875 -1.875 5.125 -2.046875 5.1875 -2.140625 C 5.453125 -2.484375 5.640625 -2.90625 5.71875 -3.328125 C 5.875 -4.4375 5.234375 -5.5 4.140625 -5.796875 C 3.1875 -6.1875 2.140625 -5.59375 1 -4.078125 C 0.921875 -3.984375 0.8125 -4.015625 0.84375 -4.140625 C 0.921875 -4.765625 1 -5.34375 1.078125 -5.90625 C 1.125 -6.109375 1.046875 -6.296875 0.90625 -6.40625 C 0.734375 -6.5625 0.53125 -6.578125 0.34375 -6.5 C 0.15625 -6.4375 0.046875 -6.25 0.015625 -6.0625 C -0.203125 -4.4375 -0.46875 -2.734375 -0.75 -1.109375 C -2.609375 2.640625 -4.640625 8.390625 -3.671875 9.296875 C -3.53125 9.4375 -3.328125 9.515625 -3.125 9.515625 C -3.015625 9.515625 -2.9375 9.515625 -2.84375 9.46875 C -1.671875 9.0625 -0.546875 4.015625 0.28125 -0.8125 C 0.3125 -0.859375 0.3125 -0.875 0.328125 -0.90625 C 0.90625 -2.171875 1.6875 -3.328125 2.65625 -4.328125 C 2.96875 -4.609375 3.40625 -4.9375 3.75 -4.796875 C 4.453125 -4.515625 4.765625 -4.078125 4.65625 -3.515625 C 4.390625 -2.578125 3.578125 -1.859375 2.59375 -1.71875 C 2.46875 -1.71875 2.34375 -1.6875 2.21875 -1.6875 C 1.9375 -1.65625 1.734375 -1.40625 1.734375 -1.125 C 1.78125 -0.84375 2 -0.640625 2.28125 -0.640625 C 2.4375 -0.640625 2.578125 -0.640625 2.71875 -0.65625 C 3.109375 -0.6875 3.546875 -0.71875 4.0625 -0.734375 C 7.515625 -0.9375 13.3125 -1.25 16.8125 -4.578125 C 16.9375 -4.65625 16.96875 -4.796875 16.984375 -4.9375 C 16.984375 -5.078125 16.9375 -5.234375 16.828125 -5.328125 Z M -2.84375 7.78125 C -2.578125 6.5625 -2.25 5.34375 -1.8125 4.1875 C -2.0625 5.40625 -2.40625 6.59375 -2.84375 7.78125 Z M -2.84375 7.78125 "/></g></g></g></g><g fill="#000000" fill-opacity="1"><g transform="translate(201.017859, 25.516227)"><g><path d="M 17.078125 -4.9375 C 16.875 -5.171875 16.515625 -5.1875 16.296875 -4.984375 C 16.234375 -4.921875 10.171875 0.53125 6.40625 -1.9375 C 4.921875 -2.921875 4.546875 -5.296875 4.546875 -5.3125 C 4.53125 -5.5625 4.34375 -5.734375 4.109375 -5.78125 C 3.875 -5.796875 3.640625 -5.671875 3.53125 -5.46875 C 2.578125 -3.34375 0.875 -0.65625 0.40625 -0.953125 C 0.375 -0.953125 0.28125 -1.046875 0.21875 -1.1875 C -0.015625 -1.859375 0.0625 -2.59375 0.40625 -3.234375 C 1.1875 -4.8125 2.609375 -5.96875 4.328125 -6.390625 C 4.515625 -6.4375 4.65625 -6.578125 4.71875 -6.765625 C 4.78125 -6.9375 4.71875 -7.140625 4.59375 -7.296875 C 4.453125 -7.40625 4.265625 -7.46875 4.078125 -7.4375 C 2.046875 -6.9375 0.34375 -5.5625 -0.578125 -3.671875 C -1.0625 -2.75 -1.125 -1.65625 -0.734375 -0.6875 C -0.546875 -0.21875 -0.109375 0.109375 0.40625 0.109375 L 0.421875 0.109375 C 1.421875 0.078125 2.671875 -1.15625 3.53125 -2.515625 C 3.640625 -2.671875 3.8125 -2.75 4 -2.734375 C 4.1875 -2.734375 4.34375 -2.640625 4.4375 -2.46875 C 4.78125 -1.90625 5.25 -1.40625 5.8125 -1.0625 C 10.265625 1.90625 16.75 -3.9375 17.03125 -4.1875 C 17.140625 -4.28125 17.1875 -4.4375 17.1875 -4.546875 C 17.21875 -4.703125 17.15625 -4.84375 17.078125 -4.9375 Z M 17.078125 -4.9375 "/></g></g></g><g fill="#000000" fill-opacity="1"><g transform="translate(217.518062, 25.516227)"><g><path d="M 17.84375 -5.078125 C 17.71875 -5.171875 17.609375 -5.234375 17.453125 -5.234375 C 17.3125 -5.203125 17.171875 -5.140625 17.09375 -5.046875 C 17.03125 -5 12.546875 -0.203125 8.640625 -1.78125 C 7.796875 -2.21875 7.125 -2.90625 6.65625 -3.734375 C 6.5 -4 6.296875 -4.265625 6.046875 -4.515625 C 5.78125 -4.84375 5.375 -5.03125 4.9375 -5.046875 C 3.90625 -5.125 2.640625 -4.4375 1.125 -3 C 1.078125 -2.96875 1.015625 -2.9375 0.953125 -2.984375 C 0.90625 -3 0.859375 -3.078125 0.875 -3.140625 L 1.328125 -5.140625 C 1.40625 -5.4375 1.21875 -5.734375 0.9375 -5.796875 C 0.65625 -5.859375 0.375 -5.671875 0.28125 -5.390625 L -0.734375 -0.921875 C -0.796875 -0.671875 -0.671875 -0.421875 -0.453125 -0.328125 C -0.21875 -0.203125 0.046875 -0.265625 0.203125 -0.453125 C 2.9375 -3.65625 4.328125 -3.96875 4.8125 -3.984375 C 5.3125 -4 5.609375 -3.375 5.78125 -3.125 C 6.34375 -2.125 7.203125 -1.3125 8.234375 -0.796875 C 12.796875 1.0625 17.671875 -4.109375 17.875 -4.328125 C 18.078125 -4.53125 18.046875 -4.875 17.84375 -5.078125 Z M 17.84375 -5.078125 "/></g></g></g><g fill="#000000" fill-opacity="1"><g transform="translate(234.528772, 25.516227)"><g><path d="M 17.140625 -5.25 C 17.03125 -5.34375 16.90625 -5.4375 16.765625 -5.4375 C 16.625 -5.453125 16.484375 -5.40625 16.375 -5.328125 C 16.296875 -5.265625 8.4375 0.984375 1.875 -1.71875 C 0.546875 -2.265625 0.484375 -2.984375 0.53125 -3.375 C 0.53125 -3.4375 0.546875 -3.484375 0.609375 -3.53125 C 0.65625 -3.578125 0.734375 -3.578125 0.796875 -3.546875 C 2.125 -3.46875 3.453125 -3.8125 4.59375 -4.53125 C 5.578125 -5.171875 5.734375 -5.859375 5.671875 -6.3125 C 5.640625 -7.046875 5.046875 -7.640625 4.28125 -7.65625 C 2.671875 -7.734375 -0.015625 -5.8125 -0.46875 -3.78125 C -0.65625 -3.015625 -0.640625 -1.59375 1.46875 -0.734375 C 2.75 -0.203125 4.109375 0.046875 5.46875 0.046875 C 11.328125 0.046875 16.765625 -4.265625 17.046875 -4.5 C 17.15625 -4.578125 17.234375 -4.71875 17.234375 -4.84375 C 17.25 -4.984375 17.21875 -5.125 17.140625 -5.25 Z M 1.265625 -4.796875 C 2.0625 -5.90625 3.390625 -6.640625 4.234375 -6.578125 C 4.453125 -6.578125 4.578125 -6.5 4.609375 -6.1875 C 4.640625 -5.984375 4.40625 -5.703125 4 -5.4375 C 3.171875 -4.875 0.65625 -3.984375 1.265625 -4.796875 Z M 1.265625 -4.796875 "/></g></g></g></svg>